<?xml version="1.0" standalone="no"?>
<!DOCTYPE svg PUBLIC "-//W3C//DTD SVG 20010904//EN"
 "http://www.w3.org/TR/2001/REC-SVG-20010904/DTD/svg10.dtd">
<svg version="1.0" xmlns="http://www.w3.org/2000/svg"
 width="400.000000pt" height="400.000000pt" viewBox="0 0 400.000000 400.000000"
 preserveAspectRatio="xMidYMid meet">
<metadata>
Created by potrace 1.14, written by Peter Selinger 2001-2017
</metadata>
<g transform="translate(0.000000,400.000000) scale(0.100000,-0.100000)"
fill="#000000" stroke="none">
<path d="M1968 3924 c-3 -2 -20 -6 -39 -9 -62 -9 -74 -12 -126 -34 -98 -39
-190 -112 -224 -178 -8 -15 -17 -30 -20 -33 -12 -11 -42 -100 -59 -178 -17
-79 -19 -201 -8 -552 2 -69 -10 -159 -32 -235 -12 -39 -22 -74 -23 -80 -12
-41 -87 -166 -148 -245 -40 -52 -75 -97 -79 -100 -29 -25 -266 -412 -261 -427
0 -2 -9 -24 -20 -50 -23 -52 -65 -182 -74 -226 -3 -15 -8 -39 -11 -55 -3 -15
-6 -72 -7 -127 l-2 -101 -57 -75 c-70 -94 -72 -95 -167 -133 -99 -40 -137 -68
-163 -125 -18 -40 -19 -56 -13 -136 13 -159 11 -197 -16 -282 -14 -45 -9 -122
10 -156 29 -52 110 -88 231 -102 30 -4 64 -8 75 -10 11 -1 45 -6 75 -10 30 -5
60 -9 65 -10 17 -2 97 -26 114 -34 9 -5 34 -18 56 -29 22 -11 67 -29 100 -40
220 -75 400 -34 490 111 7 10 32 18 75 22 36 4 69 9 73 12 5 3 25 7 45 9 21 2
58 8 84 12 46 9 203 8 243 -1 34 -8 157 -20 209 -21 49 -1 49 -1 79 -56 57
-106 144 -162 258 -166 132 -5 248 52 385 190 113 113 105 107 284 199 63 33
130 71 148 84 66 49 86 110 60 184 -11 34 -56 105 -81 131 -34 34 -63 109 -91
233 -8 37 -38 85 -67 108 -19 15 -39 32 -46 37 -9 8 -9 19 2 50 8 22 12 40 10
40 -2 0 0 14 5 31 13 44 13 173 1 254 -25 167 -106 363 -222 534 -35 52 -68
102 -74 110 -5 9 -12 18 -15 21 -14 14 -171 212 -202 255 -52 72 -102 170
-123 240 -14 47 -19 104 -21 255 -4 245 -13 362 -34 450 -33 137 -81 231 -155
305 -100 101 -210 141 -391 143 -56 0 -104 -1 -106 -4z"/>
</g>
</svg>
